STARTFONT 2.1
FONT -FontForge-CG Mono-Normal-R-Normal--8-60-96-96-C-50-WinRoman-0
SIZE 6 96 96
FONTBOUNDINGBOX 5 9 0 -2
COMMENT "Generated by fontforge, http://fontforge.sourceforge.net"
COMMENT "Copyright (c) 2023, admin"
STARTPROPERTIES 34
FOUNDRY "FontForge"
FAMILY_NAME "CG Mono"
WEIGHT_NAME "Normal"
SLANT "R"
SETWIDTH_NAME "Normal"
ADD_STYLE_NAME ""
PIXEL_SIZE 8
POINT_SIZE 60
RESOLUTION_X 96
RESOLUTION_Y 96
SPACING "C"
AVERAGE_WIDTH 50
CHARSET_REGISTRY "WinRoman"
CHARSET_ENCODING "0"
FONTNAME_REGISTRY ""
CHARSET_COLLECTIONS "WinRoman"
FONT_NAME "CGMono"
FACE_NAME "CG Mono"
COPYRIGHT "Copyright (c) 2023, admin"
FONT_VERSION "001.000"
FONT_ASCENT 6
FONT_DESCENT 2
UNDERLINE_POSITION -1
UNDERLINE_THICKNESS 1
X_HEIGHT 4
CAP_HEIGHT 5
RAW_ASCENT 800
RAW_DESCENT 200
NORM_SPACE 5
RELATIVE_WEIGHT 40
RELATIVE_SETWIDTH 50
FIGURE_WIDTH 5
AVG_LOWERCASE_WIDTH 50
AVG_UPPERCASE_WIDTH 50
ENDPROPERTIES
CHARS 225
STARTCHAR uni001F
ENCODING 31
SWIDTH 636 0
DWIDTH 5 0
BBX 3 5 1 0
BITMAP
E0
A0
A0
A0
E0
ENDCHAR
STARTCHAR space
ENCODING 32
SWIDTH 636 0
DWIDTH 5 0
BBX 1 1 4 -2
BITMAP
00
ENDCHAR
STARTCHAR exclam
ENCODING 33
SWIDTH 636 0
DWIDTH 5 0
BBX 1 6 2 0
BITMAP
80
80
80
80
00
80
ENDCHAR
STARTCHAR quotedbl
ENCODING 34
SWIDTH 636 0
DWIDTH 5 0
BBX 3 2 1 4
BITMAP
A0
A0
ENDCHAR
STARTCHAR numbersign
ENCODING 35
SWIDTH 636 0
DWIDTH 5 0
BBX 5 6 0 0
BITMAP
50
F8
50
50
F8
50
ENDCHAR
STARTCHAR dollar
ENCODING 36
SWIDTH 636 0
DWIDTH 5 0
BBX 4 8 0 -1
BITMAP
20
70
A0
E0
50
50
E0
40
ENDCHAR
STARTCHAR percent
ENCODING 37
SWIDTH 636 0
DWIDTH 5 0
BBX 4 6 0 0
BITMAP
D0
D0
20
40
B0
B0
ENDCHAR
STARTCHAR ampersand
ENCODING 38
SWIDTH 636 0
DWIDTH 5 0
BBX 4 6 0 0
BITMAP
40
A0
40
B0
A0
70
ENDCHAR
STARTCHAR quotesingle
ENCODING 39
SWIDTH 636 0
DWIDTH 5 0
BBX 2 2 1 4
BITMAP
C0
80
ENDCHAR
STARTCHAR parenleft
ENCODING 40
SWIDTH 636 0
DWIDTH 5 0
BBX 3 8 1 -1
BITMAP
20
40
80
80
80
80
40
20
ENDCHAR
STARTCHAR parenright
ENCODING 41
SWIDTH 636 0
DWIDTH 5 0
BBX 3 8 1 -1
BITMAP
80
40
20
20
20
20
40
80
ENDCHAR
STARTCHAR asterisk
ENCODING 42
SWIDTH 636 0
DWIDTH 5 0
BBX 3 3 1 3
BITMAP
A0
40
A0
ENDCHAR
STARTCHAR plus
ENCODING 43
SWIDTH 636 0
DWIDTH 5 0
BBX 5 5 0 0
BITMAP
20
20
F8
20
20
ENDCHAR
STARTCHAR comma
ENCODING 44
SWIDTH 636 0
DWIDTH 5 0
BBX 2 2 1 -1
BITMAP
C0
80
ENDCHAR
STARTCHAR hyphen
ENCODING 45
SWIDTH 636 0
DWIDTH 5 0
BBX 3 1 0 2
BITMAP
E0
ENDCHAR
STARTCHAR period
ENCODING 46
SWIDTH 636 0
DWIDTH 5 0
BBX 2 1 1 0
BITMAP
C0
ENDCHAR
STARTCHAR slash
ENCODING 47
SWIDTH 636 0
DWIDTH 5 0
BBX 4 6 0 0
BITMAP
10
20
40
40
80
80
ENDCHAR
STARTCHAR zero
ENCODING 48
SWIDTH 636 0
DWIDTH 5 0
BBX 4 6 0 0
BITMAP
60
90
D0
90
90
60
ENDCHAR
STARTCHAR one
ENCODING 49
SWIDTH 636 0
DWIDTH 5 0
BBX 3 6 1 0
BITMAP
40
C0
40
40
40
E0
ENDCHAR
STARTCHAR two
ENCODING 50
SWIDTH 636 0
DWIDTH 5 0
BBX 4 6 0 0
BITMAP
E0
10
60
80
80
F0
ENDCHAR
STARTCHAR three
ENCODING 51
SWIDTH 636 0
DWIDTH 5 0
BBX 4 6 0 0
BITMAP
E0
10
60
10
10
E0
ENDCHAR
STARTCHAR four
ENCODING 52
SWIDTH 636 0
DWIDTH 5 0
BBX 5 6 0 0
BITMAP
10
30
50
90
F8
10
ENDCHAR
STARTCHAR five
ENCODING 53
SWIDTH 636 0
DWIDTH 5 0
BBX 4 6 0 0
BITMAP
F0
80
E0
10
10
E0
ENDCHAR
STARTCHAR six
ENCODING 54
SWIDTH 636 0
DWIDTH 5 0
BBX 4 6 0 0
BITMAP
70
80
E0
90
90
60
ENDCHAR
STARTCHAR seven
ENCODING 55
SWIDTH 636 0
DWIDTH 5 0
BBX 4 6 0 0
BITMAP
F0
10
20
40
40
40
ENDCHAR
STARTCHAR eight
ENCODING 56
SWIDTH 636 0
DWIDTH 5 0
BBX 4 6 0 0
BITMAP
60
90
60
90
90
60
ENDCHAR
STARTCHAR nine
ENCODING 57
SWIDTH 636 0
DWIDTH 5 0
BBX 4 6 0 0
BITMAP
60
90
70
10
10
E0
ENDCHAR
STARTCHAR colon
ENCODING 58
SWIDTH 636 0
DWIDTH 5 0
BBX 2 4 1 0
BITMAP
C0
00
00
C0
ENDCHAR
STARTCHAR semicolon
ENCODING 59
SWIDTH 636 0
DWIDTH 5 0
BBX 2 5 1 -1
BITMAP
C0
00
00
C0
80
ENDCHAR
STARTCHAR less
ENCODING 60
SWIDTH 636 0
DWIDTH 5 0
BBX 3 5 1 0
BITMAP
20
40
80
40
20
ENDCHAR
STARTCHAR equal
ENCODING 61
SWIDTH 636 0
DWIDTH 5 0
BBX 4 3 0 1
BITMAP
F0
00
F0
ENDCHAR
STARTCHAR greater
ENCODING 62
SWIDTH 636 0
DWIDTH 5 0
BBX 3 5 1 0
BITMAP
80
40
20
40
80
ENDCHAR
STARTCHAR question
ENCODING 63
SWIDTH 636 0
DWIDTH 5 0
BBX 4 6 0 0
BITMAP
60
90
20
40
00
40
ENDCHAR
STARTCHAR at
ENCODING 64
SWIDTH 636 0
DWIDTH 5 0
BBX 4 6 0 0
BITMAP
60
90
B0
B0
80
70
ENDCHAR
STARTCHAR A
ENCODING 65
SWIDTH 636 0
DWIDTH 5 0
BBX 5 6 0 0
BITMAP
20
20
50
70
88
88
ENDCHAR
STARTCHAR B
ENCODING 66
SWIDTH 636 0
DWIDTH 5 0
BBX 4 6 0 0
BITMAP
E0
90
E0
90
90
E0
ENDCHAR
STARTCHAR C
ENCODING 67
SWIDTH 636 0
DWIDTH 5 0
BBX 4 6 0 0
BITMAP
70
80
80
80
80
70
ENDCHAR
STARTCHAR D
ENCODING 68
SWIDTH 636 0
DWIDTH 5 0
BBX 4 6 0 0
BITMAP
E0
90
90
90
90
E0
ENDCHAR
STARTCHAR E
ENCODING 69
SWIDTH 636 0
DWIDTH 5 0
BBX 4 6 0 0
BITMAP
F0
80
E0
80
80
F0
ENDCHAR
STARTCHAR F
ENCODING 70
SWIDTH 636 0
DWIDTH 5 0
BBX 4 6 0 0
BITMAP
F0
80
E0
80
80
80
ENDCHAR
STARTCHAR G
ENCODING 71
SWIDTH 636 0
DWIDTH 5 0
BBX 4 6 0 0
BITMAP
70
80
B0
90
90
70
ENDCHAR
STARTCHAR H
ENCODING 72
SWIDTH 636 0
DWIDTH 5 0
BBX 4 6 0 0
BITMAP
90
90
F0
90
90
90
ENDCHAR
STARTCHAR I
ENCODING 73
SWIDTH 636 0
DWIDTH 5 0
BBX 3 6 1 0
BITMAP
E0
40
40
40
40
E0
ENDCHAR
STARTCHAR J
ENCODING 74
SWIDTH 636 0
DWIDTH 5 0
BBX 4 6 0 0
BITMAP
70
10
10
10
10
E0
ENDCHAR
STARTCHAR K
ENCODING 75
SWIDTH 636 0
DWIDTH 5 0
BBX 4 6 0 0
BITMAP
90
A0
C0
A0
90
90
ENDCHAR
STARTCHAR L
ENCODING 76
SWIDTH 636 0
DWIDTH 5 0
BBX 4 6 0 0
BITMAP
80
80
80
80
80
F0
ENDCHAR
STARTCHAR M
ENCODING 77
SWIDTH 636 0
DWIDTH 5 0
BBX 5 6 0 0
BITMAP
88
D8
D8
A8
A8
88
ENDCHAR
STARTCHAR N
ENCODING 78
SWIDTH 636 0
DWIDTH 5 0
BBX 4 6 0 0
BITMAP
90
D0
D0
B0
B0
90
ENDCHAR
STARTCHAR O
ENCODING 79
SWIDTH 636 0
DWIDTH 5 0
BBX 4 6 0 0
BITMAP
60
90
90
90
90
60
ENDCHAR
STARTCHAR P
ENCODING 80
SWIDTH 636 0
DWIDTH 5 0
BBX 4 6 0 0
BITMAP
E0
90
E0
80
80
80
ENDCHAR
STARTCHAR Q
ENCODING 81
SWIDTH 636 0
DWIDTH 5 0
BBX 4 7 0 -1
BITMAP
60
90
90
90
90
60
10
ENDCHAR
STARTCHAR R
ENCODING 82
SWIDTH 636 0
DWIDTH 5 0
BBX 4 6 0 0
BITMAP
E0
90
E0
90
90
90
ENDCHAR
STARTCHAR S
ENCODING 83
SWIDTH 636 0
DWIDTH 5 0
BBX 4 6 0 0
BITMAP
70
80
60
10
10
E0
ENDCHAR
STARTCHAR T
ENCODING 84
SWIDTH 636 0
DWIDTH 5 0
BBX 5 6 0 0
BITMAP
F8
20
20
20
20
20
ENDCHAR
STARTCHAR U
ENCODING 85
SWIDTH 636 0
DWIDTH 5 0
BBX 4 6 0 0
BITMAP
90
90
90
90
90
60
ENDCHAR
STARTCHAR V
ENCODING 86
SWIDTH 636 0
DWIDTH 5 0
BBX 5 6 0 0
BITMAP
88
88
50
50
20
20
ENDCHAR
STARTCHAR W
ENCODING 87
SWIDTH 636 0
DWIDTH 5 0
BBX 5 6 0 0
BITMAP
88
88
A8
A8
50
50
ENDCHAR
STARTCHAR X
ENCODING 88
SWIDTH 636 0
DWIDTH 5 0
BBX 5 6 0 0
BITMAP
88
50
20
50
88
88
ENDCHAR
STARTCHAR Y
ENCODING 89
SWIDTH 636 0
DWIDTH 5 0
BBX 5 6 0 0
BITMAP
88
88
50
20
20
20
ENDCHAR
STARTCHAR Z
ENCODING 90
SWIDTH 636 0
DWIDTH 5 0
BBX 4 6 0 0
BITMAP
F0
10
20
40
80
F0
ENDCHAR
STARTCHAR bracketleft
ENCODING 91
SWIDTH 636 0
DWIDTH 5 0
BBX 2 8 1 -1
BITMAP
C0
80
80
80
80
80
80
C0
ENDCHAR
STARTCHAR backslash
ENCODING 92
SWIDTH 636 0
DWIDTH 5 0
BBX 4 6 0 0
BITMAP
80
40
20
20
10
10
ENDCHAR
STARTCHAR bracketright
ENCODING 93
SWIDTH 636 0
DWIDTH 5 0
BBX 2 8 1 -1
BITMAP
C0
40
40
40
40
40
40
C0
ENDCHAR
STARTCHAR asciicircum
ENCODING 94
SWIDTH 636 0
DWIDTH 5 0
BBX 5 3 0 3
BITMAP
20
50
88
ENDCHAR
STARTCHAR underscore
ENCODING 95
SWIDTH 636 0
DWIDTH 5 0
BBX 5 1 0 -1
BITMAP
F8
ENDCHAR
STARTCHAR grave
ENCODING 96
SWIDTH 636 0
DWIDTH 5 0
BBX 2 2 1 5
BITMAP
80
40
ENDCHAR
STARTCHAR a
ENCODING 97
SWIDTH 636 0
DWIDTH 5 0
BBX 4 5 0 0
BITMAP
60
10
70
90
70
ENDCHAR
STARTCHAR b
ENCODING 98
SWIDTH 636 0
DWIDTH 5 0
BBX 4 7 0 0
BITMAP
80
80
E0
90
90
90
E0
ENDCHAR
STARTCHAR c
ENCODING 99
SWIDTH 636 0
DWIDTH 5 0
BBX 4 5 0 0
BITMAP
70
80
80
80
70
ENDCHAR
STARTCHAR d
ENCODING 100
SWIDTH 636 0
DWIDTH 5 0
BBX 4 7 0 0
BITMAP
10
10
70
90
90
90
70
ENDCHAR
STARTCHAR e
ENCODING 101
SWIDTH 636 0
DWIDTH 5 0
BBX 4 5 0 0
BITMAP
60
90
F0
80
70
ENDCHAR
STARTCHAR f
ENCODING 102
SWIDTH 636 0
DWIDTH 5 0
BBX 4 7 0 0
BITMAP
30
40
F0
40
40
40
40
ENDCHAR
STARTCHAR g
ENCODING 103
SWIDTH 636 0
DWIDTH 5 0
BBX 4 7 0 -2
BITMAP
70
90
90
90
70
10
60
ENDCHAR
STARTCHAR h
ENCODING 104
SWIDTH 636 0
DWIDTH 5 0
BBX 4 7 0 0
BITMAP
80
80
E0
90
90
90
90
ENDCHAR
STARTCHAR i
ENCODING 105
SWIDTH 636 0
DWIDTH 5 0
BBX 3 7 1 0
BITMAP
40
00
C0
40
40
40
E0
ENDCHAR
STARTCHAR j
ENCODING 106
SWIDTH 636 0
DWIDTH 5 0
BBX 3 9 0 -2
BITMAP
20
00
60
20
20
20
20
20
C0
ENDCHAR
STARTCHAR k
ENCODING 107
SWIDTH 636 0
DWIDTH 5 0
BBX 4 7 0 0
BITMAP
80
80
90
A0
C0
A0
90
ENDCHAR
STARTCHAR l
ENCODING 108
SWIDTH 636 0
DWIDTH 5 0
BBX 3 7 1 0
BITMAP
C0
40
40
40
40
40
E0
ENDCHAR
STARTCHAR m
ENCODING 109
SWIDTH 636 0
DWIDTH 5 0
BBX 5 5 0 0
BITMAP
D0
A8
A8
A8
A8
ENDCHAR
STARTCHAR n
ENCODING 110
SWIDTH 636 0
DWIDTH 5 0
BBX 4 5 0 0
BITMAP
E0
90
90
90
90
ENDCHAR
STARTCHAR o
ENCODING 111
SWIDTH 636 0
DWIDTH 5 0
BBX 4 5 0 0
BITMAP
60
90
90
90
60
ENDCHAR
STARTCHAR p
ENCODING 112
SWIDTH 636 0
DWIDTH 5 0
BBX 4 7 0 -2
BITMAP
E0
90
90
90
E0
80
80
ENDCHAR
STARTCHAR q
ENCODING 113
SWIDTH 636 0
DWIDTH 5 0
BBX 4 7 0 -2
BITMAP
70
90
90
90
70
10
10
ENDCHAR
STARTCHAR r
ENCODING 114
SWIDTH 636 0
DWIDTH 5 0
BBX 4 5 0 0
BITMAP
A0
D0
80
80
80
ENDCHAR
STARTCHAR s
ENCODING 115
SWIDTH 636 0
DWIDTH 5 0
BBX 4 5 0 0
BITMAP
70
80
60
10
E0
ENDCHAR
STARTCHAR t
ENCODING 116
SWIDTH 636 0
DWIDTH 5 0
BBX 4 7 0 0
BITMAP
40
40
F0
40
40
40
30
ENDCHAR
STARTCHAR u
ENCODING 117
SWIDTH 636 0
DWIDTH 5 0
BBX 4 5 0 0
BITMAP
90
90
90
90
70
ENDCHAR
STARTCHAR v
ENCODING 118
SWIDTH 636 0
DWIDTH 5 0
BBX 5 5 0 0
BITMAP
88
88
50
50
20
ENDCHAR
STARTCHAR w
ENCODING 119
SWIDTH 636 0
DWIDTH 5 0
BBX 5 5 0 0
BITMAP
88
A8
A8
50
50
ENDCHAR
STARTCHAR x
ENCODING 120
SWIDTH 636 0
DWIDTH 5 0
BBX 5 5 0 0
BITMAP
88
50
20
50
88
ENDCHAR
STARTCHAR y
ENCODING 121
SWIDTH 636 0
DWIDTH 5 0
BBX 5 7 0 -2
BITMAP
88
88
50
50
20
20
C0
ENDCHAR
STARTCHAR z
ENCODING 122
SWIDTH 636 0
DWIDTH 5 0
BBX 4 5 0 0
BITMAP
F0
20
40
80
F0
ENDCHAR
STARTCHAR braceleft
ENCODING 123
SWIDTH 636 0
DWIDTH 5 0
BBX 4 8 0 -1
BITMAP
10
20
20
C0
20
20
20
10
ENDCHAR
STARTCHAR bar
ENCODING 124
SWIDTH 636 0
DWIDTH 5 0
BBX 1 8 2 -1
BITMAP
80
80
80
80
80
80
80
80
ENDCHAR
STARTCHAR braceright
ENCODING 125
SWIDTH 636 0
DWIDTH 5 0
BBX 4 8 1 -1
BITMAP
80
40
40
30
40
40
40
80
ENDCHAR
STARTCHAR asciitilde
ENCODING 126
SWIDTH 636 0
DWIDTH 5 0
BBX 4 2 0 2
BITMAP
50
A0
ENDCHAR
STARTCHAR uni007F
ENCODING 127
SWIDTH 636 0
DWIDTH 5 0
BBX 3 5 1 0
BITMAP
E0
A0
A0
A0
E0
ENDCHAR
STARTCHAR Euro
ENCODING 128
SWIDTH 636 0
DWIDTH 5 0
BBX 4 6 0 0
BITMAP
70
80
E0
E0
80
70
ENDCHAR
STARTCHAR NameMe.129
ENCODING 129
SWIDTH 636 0
DWIDTH 5 0
BBX 3 5 1 0
BITMAP
E0
A0
A0
A0
E0
ENDCHAR
STARTCHAR quotesinglbase
ENCODING 130
SWIDTH 636 0
DWIDTH 5 0
BBX 2 2 1 -1
BITMAP
40
80
ENDCHAR
STARTCHAR florin
ENCODING 131
SWIDTH 636 0
DWIDTH 5 0
BBX 3 7 1 -1
BITMAP
20
40
E0
40
40
40
80
ENDCHAR
STARTCHAR quotedblbase
ENCODING 132
SWIDTH 636 0
DWIDTH 5 0
BBX 4 2 0 -1
BITMAP
50
A0
ENDCHAR
STARTCHAR ellipsis
ENCODING 133
SWIDTH 636 0
DWIDTH 5 0
BBX 5 1 0 0
BITMAP
A8
ENDCHAR
STARTCHAR dagger
ENCODING 134
SWIDTH 636 0
DWIDTH 5 0
BBX 3 7 1 -1
BITMAP
40
40
E0
40
40
40
40
ENDCHAR
STARTCHAR daggerdbl
ENCODING 135
SWIDTH 636 0
DWIDTH 5 0
BBX 3 7 1 -1
BITMAP
40
40
E0
40
E0
40
40
ENDCHAR
STARTCHAR circumflex
ENCODING 136
SWIDTH 636 0
DWIDTH 5 0
BBX 3 2 1 5
BITMAP
40
A0
ENDCHAR
STARTCHAR perthousand
ENCODING 137
SWIDTH 636 0
DWIDTH 5 0
BBX 5 6 0 0
BITMAP
D0
D0
20
40
B8
B8
ENDCHAR
STARTCHAR Scaron
ENCODING 138
SWIDTH 636 0
DWIDTH 5 0
BBX 4 7 0 0
BITMAP
40
A0
70
80
60
10
E0
ENDCHAR
STARTCHAR guilsinglleft
ENCODING 139
SWIDTH 636 0
DWIDTH 5 0
BBX 2 3 1 0
BITMAP
40
80
40
ENDCHAR
STARTCHAR OE
ENCODING 140
SWIDTH 636 0
DWIDTH 5 0
BBX 5 6 0 0
BITMAP
78
A0
B0
A0
A0
78
ENDCHAR
STARTCHAR NameMe.141
ENCODING 141
SWIDTH 636 0
DWIDTH 5 0
BBX 3 5 1 0
BITMAP
E0
A0
A0
A0
E0
ENDCHAR
STARTCHAR Zcaron
ENCODING 142
SWIDTH 636 0
DWIDTH 5 0
BBX 3 5 1 0
BITMAP
E0
A0
A0
A0
E0
ENDCHAR
STARTCHAR NameMe.143
ENCODING 143
SWIDTH 636 0
DWIDTH 5 0
BBX 3 5 1 0
BITMAP
E0
A0
A0
A0
E0
ENDCHAR
STARTCHAR NameMe.144
ENCODING 144
SWIDTH 636 0
DWIDTH 5 0
BBX 3 5 1 0
BITMAP
E0
A0
A0
A0
E0
ENDCHAR
STARTCHAR quoteleft
ENCODING 145
SWIDTH 636 0
DWIDTH 5 0
BBX 1 2 2 4
BITMAP
80
80
ENDCHAR
STARTCHAR quoteright
ENCODING 146
SWIDTH 636 0
DWIDTH 5 0
BBX 1 2 2 4
BITMAP
80
80
ENDCHAR
STARTCHAR quotedblleft
ENCODING 147
SWIDTH 636 0
DWIDTH 5 0
BBX 3 2 1 4
BITMAP
A0
A0
ENDCHAR
STARTCHAR quotedblright
ENCODING 148
SWIDTH 636 0
DWIDTH 5 0
BBX 3 2 1 4
BITMAP
A0
A0
ENDCHAR
STARTCHAR bullet
ENCODING 149
SWIDTH 636 0
DWIDTH 5 0
BBX 2 2 1 2
BITMAP
C0
C0
ENDCHAR
STARTCHAR endash
ENCODING 150
SWIDTH 636 0
DWIDTH 5 0
BBX 4 1 0 2
BITMAP
F0
ENDCHAR
STARTCHAR emdash
ENCODING 151
SWIDTH 636 0
DWIDTH 5 0
BBX 5 1 0 2
BITMAP
F8
ENDCHAR
STARTCHAR tilde
ENCODING 152
SWIDTH 636 0
DWIDTH 5 0
BBX 5 1 0 5
BITMAP
F8
ENDCHAR
STARTCHAR trademark
ENCODING 153
SWIDTH 636 0
DWIDTH 5 0
BBX 5 3 0 3
BITMAP
E8
78
68
ENDCHAR
STARTCHAR scaron
ENCODING 154
SWIDTH 636 0
DWIDTH 5 0
BBX 4 7 0 0
BITMAP
50
20
00
70
E0
10
E0
ENDCHAR
STARTCHAR guilsinglright
ENCODING 155
SWIDTH 636 0
DWIDTH 5 0
BBX 2 3 1 1
BITMAP
80
40
80
ENDCHAR
STARTCHAR oe
ENCODING 156
SWIDTH 636 0
DWIDTH 5 0
BBX 5 5 0 0
BITMAP
50
A8
B8
A0
58
ENDCHAR
STARTCHAR NameMe.157
ENCODING 157
SWIDTH 636 0
DWIDTH 5 0
BBX 3 5 1 0
BITMAP
E0
A0
A0
A0
E0
ENDCHAR
STARTCHAR zcaron
ENCODING 158
SWIDTH 636 0
DWIDTH 5 0
BBX 3 5 1 0
BITMAP
E0
A0
A0
A0
E0
ENDCHAR
STARTCHAR Ydieresis
ENCODING 159
SWIDTH 636 0
DWIDTH 5 0
BBX 5 7 0 0
BITMAP
50
88
88
50
20
20
20
ENDCHAR
STARTCHAR uni00A0
ENCODING 160
SWIDTH 636 0
DWIDTH 5 0
BBX 1 1 4 -2
BITMAP
00
ENDCHAR
STARTCHAR exclamdown
ENCODING 161
SWIDTH 636 0
DWIDTH 5 0
BBX 1 6 2 0
BITMAP
80
00
80
80
80
80
ENDCHAR
STARTCHAR cent
ENCODING 162
SWIDTH 636 0
DWIDTH 5 0
BBX 4 7 0 -1
BITMAP
20
70
A0
A0
A0
70
20
ENDCHAR
STARTCHAR sterling
ENCODING 163
SWIDTH 636 0
DWIDTH 5 0
BBX 4 6 0 0
BITMAP
20
50
40
E0
40
F0
ENDCHAR
STARTCHAR currency
ENCODING 164
SWIDTH 636 0
DWIDTH 5 0
BBX 4 4 0 2
BITMAP
90
60
60
90
ENDCHAR
STARTCHAR yen
ENCODING 165
SWIDTH 636 0
DWIDTH 5 0
BBX 5 6 0 0
BITMAP
88
50
F8
20
F8
20
ENDCHAR
STARTCHAR brokenbar
ENCODING 166
SWIDTH 636 0
DWIDTH 5 0
BBX 1 8 2 -1
BITMAP
80
80
80
00
80
80
80
80
ENDCHAR
STARTCHAR section
ENCODING 167
SWIDTH 636 0
DWIDTH 5 0
BBX 4 7 0 -1
BITMAP
70
80
60
90
60
10
E0
ENDCHAR
STARTCHAR dieresis
ENCODING 168
SWIDTH 636 0
DWIDTH 5 0
BBX 3 1 1 5
BITMAP
A0
ENDCHAR
STARTCHAR copyright
ENCODING 169
SWIDTH 636 0
DWIDTH 5 0
BBX 5 5 0 1
BITMAP
70
A8
A8
88
70
ENDCHAR
STARTCHAR ordfeminine
ENCODING 170
SWIDTH 636 0
DWIDTH 5 0
BBX 2 3 1 3
BITMAP
C0
40
C0
ENDCHAR
STARTCHAR guillemotleft
ENCODING 171
SWIDTH 636 0
DWIDTH 5 0
BBX 4 3 0 1
BITMAP
50
A0
50
ENDCHAR
STARTCHAR logicalnot
ENCODING 172
SWIDTH 636 0
DWIDTH 5 0
BBX 4 2 0 2
BITMAP
F0
10
ENDCHAR
STARTCHAR uni00AD
ENCODING 173
SWIDTH 636 0
DWIDTH 5 0
BBX 3 1 0 2
BITMAP
E0
ENDCHAR
STARTCHAR registered
ENCODING 174
SWIDTH 636 0
DWIDTH 5 0
BBX 5 5 0 1
BITMAP
70
E8
A8
88
70
ENDCHAR
STARTCHAR macron
ENCODING 175
SWIDTH 636 0
DWIDTH 5 0
BBX 5 1 0 6
BITMAP
F8
ENDCHAR
STARTCHAR degree
ENCODING 176
SWIDTH 636 0
DWIDTH 5 0
BBX 2 2 1 4
BITMAP
C0
C0
ENDCHAR
STARTCHAR plusminus
ENCODING 177
SWIDTH 636 0
DWIDTH 5 0
BBX 3 5 1 0
BITMAP
40
E0
40
00
E0
ENDCHAR
STARTCHAR uni00B2
ENCODING 178
SWIDTH 636 0
DWIDTH 5 0
BBX 2 3 1 3
BITMAP
80
C0
C0
ENDCHAR
STARTCHAR uni00B3
ENCODING 179
SWIDTH 636 0
DWIDTH 5 0
BBX 2 3 1 3
BITMAP
C0
40
C0
ENDCHAR
STARTCHAR acute
ENCODING 180
SWIDTH 636 0
DWIDTH 5 0
BBX 2 2 2 5
BITMAP
40
80
ENDCHAR
STARTCHAR mu
ENCODING 181
SWIDTH 636 0
DWIDTH 5 0
BBX 5 6 0 -1
BITMAP
90
90
90
90
E8
80
ENDCHAR
STARTCHAR paragraph
ENCODING 182
SWIDTH 636 0
DWIDTH 5 0
BBX 4 7 0 -1
BITMAP
F0
D0
D0
50
50
50
50
ENDCHAR
STARTCHAR periodcentered
ENCODING 183
SWIDTH 636 0
DWIDTH 5 0
BBX 1 1 2 2
BITMAP
80
ENDCHAR
STARTCHAR cedilla
ENCODING 184
SWIDTH 636 0
DWIDTH 5 0
BBX 2 2 1 -1
BITMAP
40
80
ENDCHAR
STARTCHAR uni00B9
ENCODING 185
SWIDTH 636 0
DWIDTH 5 0
BBX 2 3 1 3
BITMAP
C0
40
40
ENDCHAR
STARTCHAR ordmasculine
ENCODING 186
SWIDTH 636 0
DWIDTH 5 0
BBX 3 3 1 3
BITMAP
40
A0
40
ENDCHAR
STARTCHAR guillemotright
ENCODING 187
SWIDTH 636 0
DWIDTH 5 0
BBX 4 3 0 1
BITMAP
A0
50
A0
ENDCHAR
STARTCHAR onequarter
ENCODING 188
SWIDTH 636 0
DWIDTH 5 0
BBX 5 6 0 0
BITMAP
D0
50
60
28
58
48
ENDCHAR
STARTCHAR onehalf
ENCODING 189
SWIDTH 636 0
DWIDTH 5 0
BBX 5 6 0 0
BITMAP
D0
50
E0
30
58
58
ENDCHAR
STARTCHAR threequarters
ENCODING 190
SWIDTH 636 0
DWIDTH 5 0
BBX 5 6 0 0
BITMAP
D0
50
E0
28
58
48
ENDCHAR
STARTCHAR questiondown
ENCODING 191
SWIDTH 636 0
DWIDTH 5 0
BBX 4 6 0 0
BITMAP
20
00
20
40
90
60
ENDCHAR
STARTCHAR Agrave
ENCODING 192
SWIDTH 636 0
DWIDTH 5 0
BBX 5 7 0 0
BITMAP
40
20
20
50
70
88
88
ENDCHAR
STARTCHAR Aacute
ENCODING 193
SWIDTH 636 0
DWIDTH 5 0
BBX 5 7 0 0
BITMAP
10
20
20
50
70
88
88
ENDCHAR
STARTCHAR Acircumflex
ENCODING 194
SWIDTH 636 0
DWIDTH 5 0
BBX 5 7 0 0
BITMAP
20
50
20
50
70
88
88
ENDCHAR
STARTCHAR Atilde
ENCODING 195
SWIDTH 636 0
DWIDTH 5 0
BBX 5 7 0 0
BITMAP
50
A0
20
50
70
88
88
ENDCHAR
STARTCHAR Adieresis
ENCODING 196
SWIDTH 636 0
DWIDTH 5 0
BBX 5 7 0 0
BITMAP
88
20
20
50
70
88
88
ENDCHAR
STARTCHAR Aring
ENCODING 197
SWIDTH 636 0
DWIDTH 5 0
BBX 5 7 0 0
BITMAP
20
00
20
50
70
88
88
ENDCHAR
STARTCHAR AE
ENCODING 198
SWIDTH 636 0
DWIDTH 5 0
BBX 5 6 0 0
BITMAP
38
30
58
70
90
98
ENDCHAR
STARTCHAR Ccedilla
ENCODING 199
SWIDTH 636 0
DWIDTH 5 0
BBX 4 8 0 -2
BITMAP
70
80
80
80
80
70
20
60
ENDCHAR
STARTCHAR Egrave
ENCODING 200
SWIDTH 636 0
DWIDTH 5 0
BBX 4 7 0 0
BITMAP
40
20
F0
80
E0
80
F0
ENDCHAR
STARTCHAR Eacute
ENCODING 201
SWIDTH 636 0
DWIDTH 5 0
BBX 4 7 0 0
BITMAP
10
20
F0
80
E0
80
F0
ENDCHAR
STARTCHAR Ecircumflex
ENCODING 202
SWIDTH 636 0
DWIDTH 5 0
BBX 4 7 0 0
BITMAP
20
50
F0
80
E0
80
F0
ENDCHAR
STARTCHAR Edieresis
ENCODING 203
SWIDTH 636 0
DWIDTH 5 0
BBX 4 7 0 0
BITMAP
90
00
F0
80
E0
80
F0
ENDCHAR
STARTCHAR Igrave
ENCODING 204
SWIDTH 636 0
DWIDTH 5 0
BBX 3 7 1 0
BITMAP
80
40
E0
40
40
40
E0
ENDCHAR
STARTCHAR Iacute
ENCODING 205
SWIDTH 636 0
DWIDTH 5 0
BBX 3 7 1 0
BITMAP
20
40
E0
40
40
40
E0
ENDCHAR
STARTCHAR Icircumflex
ENCODING 206
SWIDTH 636 0
DWIDTH 5 0
BBX 3 7 1 0
BITMAP
40
A0
E0
40
40
40
E0
ENDCHAR
STARTCHAR Idieresis
ENCODING 207
SWIDTH 636 0
DWIDTH 5 0
BBX 3 7 1 0
BITMAP
A0
00
E0
40
40
40
E0
ENDCHAR
STARTCHAR Eth
ENCODING 208
SWIDTH 636 0
DWIDTH 5 0
BBX 4 6 0 0
BITMAP
E0
90
D0
90
90
E0
ENDCHAR
STARTCHAR Ntilde
ENCODING 209
SWIDTH 636 0
DWIDTH 5 0
BBX 4 7 0 0
BITMAP
50
A0
00
90
D0
B0
90
ENDCHAR
STARTCHAR Ograve
ENCODING 210
SWIDTH 636 0
DWIDTH 5 0
BBX 4 7 0 0
BITMAP
40
20
60
90
90
90
60
ENDCHAR
STARTCHAR Oacute
ENCODING 211
SWIDTH 636 0
DWIDTH 5 0
BBX 4 7 0 0
BITMAP
20
40
60
90
90
90
60
ENDCHAR
STARTCHAR Ocircumflex
ENCODING 212
SWIDTH 636 0
DWIDTH 5 0
BBX 4 7 0 0
BITMAP
20
50
60
90
90
90
60
ENDCHAR
STARTCHAR Otilde
ENCODING 213
SWIDTH 636 0
DWIDTH 5 0
BBX 4 7 0 0
BITMAP
50
A0
60
90
90
90
60
ENDCHAR
STARTCHAR Odieresis
ENCODING 214
SWIDTH 636 0
DWIDTH 5 0
BBX 4 7 0 0
BITMAP
90
60
90
90
90
90
60
ENDCHAR
STARTCHAR multiply
ENCODING 215
SWIDTH 636 0
DWIDTH 5 0
BBX 3 3 1 1
BITMAP
A0
40
A0
ENDCHAR
STARTCHAR Oslash
ENCODING 216
SWIDTH 636 0
DWIDTH 5 0
BBX 4 6 0 0
BITMAP
70
B0
B0
D0
D0
E0
ENDCHAR
STARTCHAR Ugrave
ENCODING 217
SWIDTH 636 0
DWIDTH 5 0
BBX 4 7 0 0
BITMAP
40
20
90
90
90
90
60
ENDCHAR
STARTCHAR Uacute
ENCODING 218
SWIDTH 636 0
DWIDTH 5 0
BBX 4 7 0 0
BITMAP
20
40
90
90
90
90
60
ENDCHAR
STARTCHAR Ucircumflex
ENCODING 219
SWIDTH 636 0
DWIDTH 5 0
BBX 4 7 0 0
BITMAP
40
A0
00
90
90
90
60
ENDCHAR
STARTCHAR Udieresis
ENCODING 220
SWIDTH 636 0
DWIDTH 5 0
BBX 4 7 0 0
BITMAP
90
00
90
90
90
90
60
ENDCHAR
STARTCHAR Yacute
ENCODING 221
SWIDTH 636 0
DWIDTH 5 0
BBX 5 6 0 1
BITMAP
10
A8
88
50
20
20
ENDCHAR
STARTCHAR Thorn
ENCODING 222
SWIDTH 636 0
DWIDTH 5 0
BBX 4 7 0 0
BITMAP
80
80
E0
90
E0
80
80
ENDCHAR
STARTCHAR germandbls
ENCODING 223
SWIDTH 636 0
DWIDTH 5 0
BBX 4 7 0 0
BITMAP
60
90
90
A0
90
90
A0
ENDCHAR
STARTCHAR agrave
ENCODING 224
SWIDTH 636 0
DWIDTH 5 0
BBX 4 7 0 0
BITMAP
40
20
60
10
70
90
70
ENDCHAR
STARTCHAR aacute
ENCODING 225
SWIDTH 636 0
DWIDTH 5 0
BBX 4 7 0 0
BITMAP
10
20
60
10
70
90
70
ENDCHAR
STARTCHAR acircumflex
ENCODING 226
SWIDTH 636 0
DWIDTH 5 0
BBX 4 7 0 0
BITMAP
20
50
60
10
70
90
70
ENDCHAR
STARTCHAR atilde
ENCODING 227
SWIDTH 636 0
DWIDTH 5 0
BBX 4 7 0 0
BITMAP
50
A0
60
10
70
90
70
ENDCHAR
STARTCHAR adieresis
ENCODING 228
SWIDTH 636 0
DWIDTH 5 0
BBX 4 7 0 0
BITMAP
50
00
60
10
70
90
70
ENDCHAR
STARTCHAR aring
ENCODING 229
SWIDTH 636 0
DWIDTH 5 0
BBX 4 7 0 0
BITMAP
20
00
60
10
70
90
70
ENDCHAR
STARTCHAR ae
ENCODING 230
SWIDTH 636 0
DWIDTH 5 0
BBX 5 5 0 0
BITMAP
50
28
78
A0
78
ENDCHAR
STARTCHAR ccedilla
ENCODING 231
SWIDTH 636 0
DWIDTH 5 0
BBX 4 7 0 -2
BITMAP
70
80
80
80
70
20
60
ENDCHAR
STARTCHAR egrave
ENCODING 232
SWIDTH 636 0
DWIDTH 5 0
BBX 4 7 0 0
BITMAP
40
20
60
90
F0
80
70
ENDCHAR
STARTCHAR eacute
ENCODING 233
SWIDTH 636 0
DWIDTH 5 0
BBX 4 7 0 0
BITMAP
20
40
60
90
F0
80
70
ENDCHAR
STARTCHAR ecircumflex
ENCODING 234
SWIDTH 636 0
DWIDTH 5 0
BBX 4 7 0 0
BITMAP
20
50
60
90
F0
80
70
ENDCHAR
STARTCHAR edieresis
ENCODING 235
SWIDTH 636 0
DWIDTH 5 0
BBX 4 7 0 0
BITMAP
50
00
60
90
F0
80
70
ENDCHAR
STARTCHAR igrave
ENCODING 236
SWIDTH 636 0
DWIDTH 5 0
BBX 3 7 1 0
BITMAP
80
40
00
C0
40
40
E0
ENDCHAR
STARTCHAR iacute
ENCODING 237
SWIDTH 636 0
DWIDTH 5 0
BBX 3 7 1 0
BITMAP
20
40
00
C0
40
40
E0
ENDCHAR
STARTCHAR icircumflex
ENCODING 238
SWIDTH 636 0
DWIDTH 5 0
BBX 3 7 1 0
BITMAP
40
A0
00
C0
40
40
E0
ENDCHAR
STARTCHAR idieresis
ENCODING 239
SWIDTH 636 0
DWIDTH 5 0
BBX 3 6 1 0
BITMAP
A0
00
C0
40
40
E0
ENDCHAR
STARTCHAR eth
ENCODING 240
SWIDTH 636 0
DWIDTH 5 0
BBX 4 7 0 0
BITMAP
20
60
10
70
90
90
70
ENDCHAR
STARTCHAR ntilde
ENCODING 241
SWIDTH 636 0
DWIDTH 5 0
BBX 4 7 0 0
BITMAP
50
A0
00
E0
90
90
90
ENDCHAR
STARTCHAR ograve
ENCODING 242
SWIDTH 636 0
DWIDTH 5 0
BBX 4 7 0 0
BITMAP
40
20
60
90
90
90
60
ENDCHAR
STARTCHAR oacute
ENCODING 243
SWIDTH 636 0
DWIDTH 5 0
BBX 4 7 0 0
BITMAP
20
40
60
90
90
90
60
ENDCHAR
STARTCHAR ocircumflex
ENCODING 244
SWIDTH 636 0
DWIDTH 5 0
BBX 4 7 0 0
BITMAP
20
50
60
90
90
90
60
ENDCHAR
STARTCHAR otilde
ENCODING 245
SWIDTH 636 0
DWIDTH 5 0
BBX 4 7 0 0
BITMAP
50
A0
60
90
90
90
60
ENDCHAR
STARTCHAR odieresis
ENCODING 246
SWIDTH 636 0
DWIDTH 5 0
BBX 4 6 0 0
BITMAP
90
60
90
90
90
60
ENDCHAR
STARTCHAR divide
ENCODING 247
SWIDTH 636 0
DWIDTH 5 0
BBX 5 5 0 0
BITMAP
20
00
F8
00
20
ENDCHAR
STARTCHAR oslash
ENCODING 248
SWIDTH 636 0
DWIDTH 5 0
BBX 4 4 0 0
BITMAP
70
90
90
E0
ENDCHAR
STARTCHAR ugrave
ENCODING 249
SWIDTH 636 0
DWIDTH 5 0
BBX 4 7 0 0
BITMAP
40
20
90
90
90
90
70
ENDCHAR
STARTCHAR uacute
ENCODING 250
SWIDTH 636 0
DWIDTH 5 0
BBX 4 7 0 0
BITMAP
20
40
90
90
90
90
70
ENDCHAR
STARTCHAR ucircumflex
ENCODING 251
SWIDTH 636 0
DWIDTH 5 0
BBX 4 7 0 0
BITMAP
20
50
00
90
90
90
70
ENDCHAR
STARTCHAR udieresis
ENCODING 252
SWIDTH 636 0
DWIDTH 5 0
BBX 4 7 0 0
BITMAP
90
00
90
90
90
90
70
ENDCHAR
STARTCHAR yacute
ENCODING 253
SWIDTH 636 0
DWIDTH 5 0
BBX 5 9 0 -2
BITMAP
10
20
00
88
88
50
20
20
C0
ENDCHAR
STARTCHAR thorn
ENCODING 254
SWIDTH 636 0
DWIDTH 5 0
BBX 4 8 0 -2
BITMAP
80
80
E0
90
90
E0
80
80
ENDCHAR
STARTCHAR ydieresis
ENCODING 255
SWIDTH 636 0
DWIDTH 5 0
BBX 5 8 0 -2
BITMAP
50
00
88
88
50
20
20
C0
ENDCHAR
ENDFONT
